<svg xmlns="http://www.w3.org/2000/svg" xmlns:xlink="http://www.w3.org/1999/xlink" width="2000" zoomAndPan="magnify" viewBox="0 0 1500 1499.999933" height="2000" preserveAspectRatio="xMidYMid meet" version="1.0"><defs><g/><clipPath id="70b0396e98"><rect x="0" width="383" y="0" height="586"/></clipPath></defs><g fill="#913131" fill-opacity="1"><g transform="translate(126.948768, 1290.612613)"><g><path d="M 64.65625 -1188.1875 L 64.65625 0 L 239.25 0 L 239.25 -475.28125 C 276.96875 -475.28125 314.148438 -481.472656 350.796875 -493.859375 C 387.441406 -506.253906 420.3125 -525.925781 449.40625 -552.875 C 478.507812 -580.894531 501.953125 -617.535156 519.734375 -662.796875 C 537.515625 -708.054688 546.40625 -764.632812 546.40625 -832.53125 C 546.40625 -900.425781 537.515625 -957.546875 519.734375 -1003.890625 C 501.953125 -1050.234375 478.507812 -1086.878906 449.40625 -1113.828125 C 420.3125 -1141.847656 387.441406 -1161.242188 350.796875 -1172.015625 C 314.148438 -1182.796875 276.96875 -1188.1875 239.25 -1188.1875 Z M 239.25 -653.09375 L 239.25 -1010.359375 C 292.0625 -1010.359375 327.628906 -996.347656 345.953125 -968.328125 C 355.648438 -954.316406 362.113281 -935.457031 365.34375 -911.75 C 368.582031 -888.039062 370.203125 -859.484375 370.203125 -826.078125 C 370.203125 -792.660156 368.582031 -764.90625 365.34375 -742.8125 C 362.113281 -720.71875 355.648438 -703.207031 345.953125 -690.28125 C 328.703125 -665.488281 293.132812 -653.09375 239.25 -653.09375 Z M 239.25 -653.09375 "/></g></g></g><g fill="#913131" fill-opacity="1"><g transform="translate(695.984076, 1290.612613)"><g><path d="M 480.125 -1008.75 L 480.125 -1188.1875 L 64.65625 -1188.1875 L 64.65625 0 L 239.25 0 L 239.25 -517.3125 L 400.90625 -517.3125 L 400.90625 -696.75 L 239.25 -696.75 L 239.25 -1008.75 Z M 480.125 -1008.75 "/></g></g></g><g transform="matrix(1, 0, 0, 1, 1097, 716)"><g clip-path="url(#70b0396e98)"><g fill="#ffffff" fill-opacity="1"><g transform="translate(30.519299, 442.427714)"><g><path d="M 341.140625 19.390625 L 341.140625 136.9375 L -26.046875 136.9375 L -26.046875 19.390625 Z M 341.140625 19.390625 "/></g></g></g></g></g></svg>